#!OML:ASF F:\VICON\USERDATA\INSTALL\rory3\rory3.ASF
:FULLY-SPECIFIED
:DEGREES
78
root 0.024384951548791056 17.451943818610545 48.100542639797474 2.784970458904197 1.8533244221135365 0.2837053486911967
lfemur -0.4422510643229547 -1.7625839321287466 -27.10209677550205
ltibia 41.831339586860516
lfoot -15.960241944687207 -3.053306772015329
ltoes -2.1206197741050588
rfemur -43.166108079160864 -5.672030355646143 24.68078452639651
rtibia 86.26312716114552
rfoot 5.066603054960893 -12.204159535859644
rtoes 1.6834038608102533
lowerback 16.24144434021819 0.34300605907695003 -1.6178786338304316
upperback -0.0432317674271685 0.3698445312711469 0.8064297441467896
thorax -9.500983967756069 0.2650406371100606 2.804863520712775
lowerneck -19.688659813724193 -2.9407110644598853 -3.207850060262885
upperneck 12.566001811077518 -3.914781311140523 4.524346037718262
head 7.363463441371069 -1.4809391827057776 1.5017463203307981
lclavicle 4.0338591863297483e-16 3.3302191414453873e-15
lhumerus -38.14199980073814 -16.65479801797719 96.84001157439296
lradius 106.22214161517005
lwrist 35.66049170478048
lhand -25.7549336912256 0.9787251600965721
lfingers 7.12502
lthumb 0.7824578457619557 30.95693919866459
rclavicle 4.0338591863297483e-16 3.3302191414453873e-15
rhumerus -52.21340479087544 10.757204902950491 -98.93901360011631
rradius 113.7712521609251
rwrist -11.2201553489518
rhand -15.276099027034462 39.89190125017576
rfingers 7.12502
rthumb 10.898600394704003 10.210368889328281
79
root -0.027856954989555677 17.331630569060458 50.03818018143001 3.877797291307042 2.978427363670943 0.7359348817889622
lfemur 5.896953510888709 -1.2363937223608548 -27.73052356184132
ltibia 34.94971491779462
lfoot -16.51894455677254 -3.5474904281721114
ltoes -4.29478841989757
rfemur -43.965297488107296 -2.0683483752107064 23.20507393810245
rtibia 64.0222498254103
rfoot 4.497630000652597 -16.595059553321498
rtoes -1.6280647254232732
lowerback 15.4601562974095 -0.07027248178176859 -2.4975682187389676
upperback -0.31546972235845727 -0.31652447996591127 0.8685485005096383
thorax -9.30296389282287 -0.017174110216330418 3.603785892290864
lowerneck -19.841537333433944 -2.975032447406525 -3.328498338155663
upperneck 12.339416046450177 -3.97233402453877 4.773287132388328
head 7.326831639568947 -1.475219409215852 1.5931057476835622
lclavicle 3.2290102630345913e-16 3.2718327356435074e-15
lhumerus -32.136534673430816 -18.877167799744477 96.64145460173451
lradius 110.44820919680734
lwrist 36.74036360536898
lhand -25.697458928312393 1.2537989815877837
lfingers 7.12502
lthumb 0.8379268346581852 31.23030899344463
rclavicle 3.2290102630345913e-16 3.2718327356435074e-15
rhumerus -54.221436114622364 10.565390583003563 -98.70281873056382
rradius 113.0242353750492
rwrist -11.09524872848121
rhand -15.08462770464606 40.2691484706869
rfingers 7.12502
rthumb 11.083367996018016 10.584103091068364
80
root -0.11827380631146088 17.10624168778055 51.02647513911977 4.817640057531243 3.9408367458691607 1.0222728453356198
lfemur 11.783215920841217 -1.3143612676358791 -28.15472333206212
ltibia 29.126763083412687
lfoot -17.135245041647817 -4.376027215239096
ltoes -8.783408880496179
rfemur -43.98039319339583 1.3490919854194434 21.924840015894084
rtibia 44.85754769926774
rfoot 3.8544158621101956 -19.20486203576827
rtoes -6.008786817787032
lowerback 14.594860401599108 -0.4621845292561024 -3.2751537703765274
upperback -0.5525574979827076 -0.9513619058382234 0.952178629903288
thorax -9.075843793209966 -0.2793948220350875 4.254709501446331
lowerneck -20.075557334443033 -2.9674845922591353 -3.3890546685881167
upperneck 12.196919538703742 -3.9890091991204812 4.859944205455084
head 7.3133723465092055 -1.45625383933229 1.6217849632596124
lclavicle -2.606572218240035e-16 2.8485417847410115e-15
lhumerus -27.177607233847844 -20.582128487575982 96.16452035067749
lradius 114.08517239684473
lwrist 37.435614678072696
lhand -25.933141365045838 1.0810825361038283
lfingers 7.12502
lthumb 0.6103136365125685 31.054758162471
rclavicle -2.606572218240035e-16 2.8485417847410115e-15
rhumerus -56.34061344489495 9.527230387203703 -98.00802831223581
rradius 111.27604658744815
rwrist -10.514972096048036
rhand -15.09553259615346 40.576831950896576
rfingers 7.12502
rthumb 11.072869818994091 10.886070399140348
81
root -0.22113271875266707 16.843489682639447 51.45250381845208 5.355676685224362 4.571596923292209 1.0627020488694776
lfemur 16.601367584538195 -2.145739957288242 -28.11016140808082
ltibia 27.639216868705848
lfoot -16.90822437127483 -5.395084039275676
ltoes -14.92184461609424
rfemur -43.67321842957392 3.0233896946635825 21.672647608437067
rtibia 36.25393452591841
rfoot 4.4841754123624336 -17.99957017261815
rtoes -9.567280398579772
lowerback 14.063244761812257 -0.7308336114423357 -3.6003973891156864
upperback -0.6568181807132125 -1.355026504046715 1.1715031842343535
thorax -8.90592406173203 -0.4495730588815151 4.7121869131017595
lowerneck -20.38713427280913 -2.911484772669803 -3.3934401768474247
upperneck 12.26084903728064 -3.9081120777752103 4.779231643264469
head 7.350191320811497 -1.4151693342527245 1.6018527841251529
lclavicle -4.955694181362662e-16 2.6781395726741157e-15
lhumerus -23.850143505034172 -21.324828174666077 95.86741750010452
lradius 116.72380208760073
lwrist 37.83770556703214
lhand -26.442689790066932 0.5062834677037851
lfingers 7.12502
lthumb 0.11825509588206451 30.475924905088323
rclavicle -4.955694181362662e-16 2.6781395726741157e-15
rhumerus -58.386204922071364 7.859446590209693 -96.71011024557328
rradius 109.0100863470103
rwrist -9.47097650042448
rhand -15.384812381390716 40.73741434747112
rfingers 7.12502
rthumb 10.793744442060643 11.03026998702772
82
root -0.3077702787569737 16.659734348422692 51.351034703073594 5.3981979410996965 4.704486536621057 0.7409025614166942
lfemur 19.417822524054422 -3.405366875909307 -27.548072297804147
ltibia 30.811297239642986
lfoot -14.226856582779288 -6.782252606999872
ltoes -21.298835679295458
rfemur -43.6225928261927 2.901439008781036 22.51906791231879
rtibia 38.175114985286015
rfoot 6.755152366150237 -13.81566710127798
rtoes -9.683008007230066
lowerback 13.870626794996312 -0.8861840576642617 -3.392786437191554
upperback -0.6793185405368525 -1.5347103309450913 1.5563523847826475
thorax -8.840833525609726 -0.5310336632355369 4.917433903963376
lowerneck -20.636902546480915 -2.7427889363951747 -3.349983126763921
upperneck 12.577663149013837 -3.6161152068134803 4.508125156085184
head 7.43046473742561 -1.31347079510639 1.5431002919243162
lclavicle -5.16028614475153e-16 2.663301971312087e-15
lhumerus -22.771194387250965 -21.099376060093196 95.94513463154546
lradius 118.36989474023956
lwrist 38.00063318686467
lhand -27.04358731071707 -0.1658670807176803
lfingers 7.12502
lthumb -0.46201197963712404 29.79822502672031
rclavicle -5.16028614475153e-16 2.663301971312087e-15
rhumerus -60.539721195488994 5.760424041889756 -94.9758059454239
rradius 106.57511821523212
rwrist -8.129512227846991
rhand -15.732363646812622 40.77174335645869
rfingers 7.12502
rthumb 10.458347808528357 11.0507593517685
83
root -0.36891623459002 16.652282289222395 51.14226093313488 5.043988827392266 4.5045506694512945 -0.0039363681941759765
lfemur 19.6355397594729 -4.515791872654377 -26.26993546177074
ltibia 37.956792238756314
lfoot -7.004877670230376 -8.933691060009672
ltoes -25.549072136283474
rfemur -43.226498448683245 2.1518629359038957 24.212949664443023
rtibia 45.48985603796359
rfoot 9.577265470420844 -8.836750820841994
rtoes -4.779668572011298
lowerback 13.855525196609694 -0.9867896527396711 -2.6371607669707107
upperback -0.749808670787347 -1.5705670679347583 2.095874881604723
thorax -8.884883606352219 -0.5576711214237157 4.86222124034702
lowerneck -20.535457992314004 -2.440792062478965 -3.2764787183272537
upperneck 13.134394144822764 -3.094412207661849 4.097569341658835
head 7.527309209410771 -1.145016114093536 1.4651026691101028
lclavicle -4.448374208099785e-16 2.7149560664714553e-15
lhumerus -24.015331812557864 -20.142157746601168 96.35187861795545
lradius 119.3727558517126
lwrist 37.911755997157115
lhand -27.367315217385098 -0.5582895813385467
lfingers 7.12502
lthumb -0.7746257564518431 29.400980830437394
rclavicle -4.448374208099785e-16 2.7149560664714553e-15
rhumerus -62.81767184812598 3.579029438654241 -93.06684134079913
rradius 104.3377304414937
rwrist -6.808540252912225
rhand -15.875582384657244 40.69873373882296
rfingers 7.12502
rthumb 10.320108243122068 10.983047117127889
84
root -0.4265653672245229 16.842811147183305 49.80897389127481 4.412755218350461 4.113899728993721 -1.1390546790304448
lfemur 15.931613281714002 -5.0604655492107495 -24.389662884681574
ltibia 47.74678733679662
lfoot 4.399446429079921 -12.027999212822191
ltoes -25.04230629132008
rfemur -41.87564618082065 1.536833140387323 26.204888454155224
rtibia 51.88312311639058
rfoot 10.778622591091484 -5.3258261106597935
rtoes 3.3446469823796092
lowerback 13.94343841046744 -1.0826348057895716 -1.5600962800972449
upperback -0.9588587769091652 -1.5595961088748638 2.6444735657698932
thorax -9.06751080916031 -0.5674312637132576 4.4459427012205035
lowerneck -20.04514717283519 -2.2077335687307835 -3.2102371652531962
upperneck 13.728173134879317 -2.678329953847162 3.681586440904441
head 7.591617206632177 -1.040423798792851 1.3812198460247098
lclavicle -1.1270500155701934e-15 2.2201444710883837e-15
lhumerus -27.736913597602097 -19.061152297688192 96.88803805033271
lradius 119.32155233395706
lwrist 37.44794032022987
lhand -27.108315988175242 -0.5029086497279189
lfingers 7.12502
lthumb -0.5245021045202913 29.456433560135583
rclavicle -1.1270500155701934e-15 2.2201444710883837e-15
rhumerus -64.93112204494128 1.8904870701994048 -91.69159702358183
rradius 102.69293071927996
rwrist -6.082893081468914
rhand -15.833569118883457 40.4725908069432
rfingers 7.12502
rthumb 10.36064625547074 10.79393272713955
